# xmcd
#
# Track frame offsets: 
#        150
#        14730
#        31612
#        48582
#        66092
#        84677
#        100810
#        115052
#        125495
#        139243
#
# Disc length: 2063 seconds
#
# Revision: 0
# Processed by: cddbd v1.5.2PL0 Copyright (c) Steve Scherf et al.
# Submitted via: ExactAudioCopy v1.0b3
#
DISCID=86080d0a
DTITLE=Porcelain Raft - Strange Weekend
DYEAR=2012
DGENRE=Dream Pop
TTITLE0=Drifting In and Out
TTITLE1=Shapeless and Gone
TTITLE2=Is It Too  Deep For You?
TTITLE3=Put Me to Sleep
TTITLE4=Backwords
TTITLE5=Unless You Speak From Your Heart
TTITLE6=The End of Silence
TTITLE7=If You Have a Wish
TTITLE8=Picture
TTITLE9=The Way In
EXTD=
EXTT0=
EXTT1=
EXTT2=
EXTT3=
EXTT4=
EXTT5=
EXTT6=
EXTT7=
EXTT8=
EXTT9=
PLAYORDER=
